<svg width="40" height="40" viewBox="0 0 40 40" fill="none" xmlns="http://www.w3.org/2000/svg">
<g id="key-2-line">
<path id="Vector" d="M17.9295 19.7132L31.011 6.63165L33.368 8.98869L31.011 11.3457L35.1358 15.4705L32.7788 17.8275L28.654 13.7027L26.297 16.0598L29.8325 19.5953L27.4755 21.9523L23.94 18.4168L20.2865 22.0702C22.4302 25.3058 22.0767 29.7082 19.2258 32.559C15.9715 35.8133 10.6952 35.8133 7.44079 32.559C4.1864 29.3045 4.1864 24.0282 7.44079 20.7738C10.2916 17.923 14.6939 17.5695 17.9295 19.7132ZM16.8688 30.2018C18.8215 28.2493 18.8215 25.0835 16.8688 23.1308C14.9163 21.1782 11.7504 21.1782 9.7978 23.1308C7.84519 25.0835 7.84519 28.2493 9.7978 30.2018C11.7504 32.1545 14.9163 32.1545 16.8688 30.2018Z" fill="black"/>
</g>
</svg>
